<?xml version="1.0" encoding="utf-8"?>
<!-- Generator: Adobe Illustrator 23.0.1, SVG Export Plug-In . SVG Version: 6.00 Build 0)  -->
<svg version="1.1" xmlns="http://www.w3.org/2000/svg" xmlns:xlink="http://www.w3.org/1999/xlink" x="0px" y="0px"
	 viewBox="0 0 824.7 729.3" style="enable-background:new 0 0 824.7 729.3;" xml:space="preserve">
<style type="text/css">
	.st0{display:none;}
	.st1{display:inline;}
	.st2{fill:#008CFF;}
	.st3{fill:#FFFFFF;}
</style>
<g id="Layer_1" class="st0">
	<g class="st1">
		<rect x="-1242.4" y="140.5" class="st2" width="1146" height="677"/>
		<path d="M-96.9,141v676h-1145V141H-96.9 M-95.9,140h-1147v678h1147V140L-95.9,140z"/>
	</g>
</g>
<g id="Layer_2">
	<path class="st3" d="M-865.5,436.2c-0.1-3.1-0.7-5.7-1.7-7.9c-1-2.2-2.4-4.1-4.2-5.4c-1.8-1.4-3.7-2.4-5.9-3
		c-2.2-0.6-4.4-0.8-6.5-0.6c-2.2,0.2-4.3,1-6.5,2.3c-2,1.2-3.9,3.2-5.7,5.9c-1.8,2.7-3.3,6-4.4,9.9c-1.1,4-1.7,7.5-1.6,10.6
		c0.1,3.1,0.7,5.7,1.7,7.9c1,2.2,2.4,4,4.1,5.4c1.8,1.4,3.8,2.4,6,3.1c2.2,0.6,4.5,0.8,6.7,0.5c2.3-0.3,4.4-1.1,6.4-2.5
		c2.3-1.5,4.2-3.6,5.8-6.2c1.6-2.5,3-5.7,4-9.4C-865.9,442.9-865.4,439.3-865.5,436.2z M-865.5,436.2c-0.1-3.1-0.7-5.7-1.7-7.9
		c-1-2.2-2.4-4.1-4.2-5.4c-1.8-1.4-3.7-2.4-5.9-3c-2.2-0.6-4.4-0.8-6.5-0.6c-2.2,0.2-4.3,1-6.5,2.3c-2,1.2-3.9,3.2-5.7,5.9
		c-1.8,2.7-3.3,6-4.4,9.9c-1.1,4-1.7,7.5-1.6,10.6c0.1,3.1,0.7,5.7,1.7,7.9c1,2.2,2.4,4,4.1,5.4c1.8,1.4,3.8,2.4,6,3.1
		c2.2,0.6,4.5,0.8,6.7,0.5c2.3-0.3,4.4-1.1,6.4-2.5c2.3-1.5,4.2-3.6,5.8-6.2c1.6-2.5,3-5.7,4-9.4
		C-865.9,442.9-865.4,439.3-865.5,436.2z M-976.9,188l-69,421l345,119l8-409L-976.9,188z M-948.7,460.1l-15.2-54.2l-13.3,46
		l-15.8-4.6l19.3-67.1l20.7,6l13.4,45.5l11.1-38.4l15.9,4.6l-19.4,67.1L-948.7,460.1z M-849.1,452.1c-3.1,10.7-8.6,18.3-16.5,22.8
		c-7.9,4.5-17.3,5.2-28.1,2.1c-10.8-3.1-18.3-8.7-22.6-16.8c-4.3-8-4.9-17.4-1.8-28.1c3.1-10.8,8.6-18.4,16.6-22.9
		c7.9-4.5,17.3-5.2,28.1-2.1c10.8,3.1,18.3,8.7,22.6,16.7C-846.6,431.9-846,441.3-849.1,452.1z M-822,497.5l-17.3-5l15.6-54.1
		l-20.9-6l3.7-13l59.2,17.1l-3.7,13l-20.9-6L-822,497.5z M-733.6,464.5l-31.3-9l-3.3,11.6l29.1,8.4l-3.7,13l-29.1-8.4l-4.8,16.6
		l31.3,9l-3.7,13l-48.5-14l19.3-67.1l48.5,14L-733.6,464.5z M-867.1,428.3c-1-2.2-2.4-4.1-4.2-5.4c-1.8-1.4-3.7-2.4-5.9-3
		c-2.2-0.6-4.4-0.8-6.5-0.6c-2.2,0.2-4.3,1-6.5,2.3c-2,1.2-3.9,3.2-5.7,5.9c-1.8,2.7-3.3,6-4.4,9.9c-1.1,4-1.7,7.5-1.6,10.6
		c0.1,3.1,0.7,5.7,1.7,7.9c1,2.2,2.4,4,4.1,5.4c1.8,1.4,3.8,2.4,6,3.1c2.2,0.6,4.5,0.8,6.7,0.5c2.3-0.3,4.4-1.1,6.4-2.5
		c2.3-1.5,4.2-3.6,5.8-6.2c1.6-2.5,3-5.7,4-9.4c1.2-4,1.7-7.6,1.6-10.7C-865.6,433.1-866.1,430.5-867.1,428.3z M-865.5,436.2
		c-0.1-3.1-0.7-5.7-1.7-7.9c-1-2.2-2.4-4.1-4.2-5.4c-1.8-1.4-3.7-2.4-5.9-3c-2.2-0.6-4.4-0.8-6.5-0.6c-2.2,0.2-4.3,1-6.5,2.3
		c-2,1.2-3.9,3.2-5.7,5.9c-1.8,2.7-3.3,6-4.4,9.9c-1.1,4-1.7,7.5-1.6,10.6c0.1,3.1,0.7,5.7,1.7,7.9c1,2.2,2.4,4,4.1,5.4
		c1.8,1.4,3.8,2.4,6,3.1c2.2,0.6,4.5,0.8,6.7,0.5c2.3-0.3,4.4-1.1,6.4-2.5c2.3-1.5,4.2-3.6,5.8-6.2c1.6-2.5,3-5.7,4-9.4
		C-865.9,442.9-865.4,439.3-865.5,436.2z M-865.5,436.2c-0.1-3.1-0.7-5.7-1.7-7.9c-1-2.2-2.4-4.1-4.2-5.4c-1.8-1.4-3.7-2.4-5.9-3
		c-2.2-0.6-4.4-0.8-6.5-0.6c-2.2,0.2-4.3,1-6.5,2.3c-2,1.2-3.9,3.2-5.7,5.9c-1.8,2.7-3.3,6-4.4,9.9c-1.1,4-1.7,7.5-1.6,10.6
		c0.1,3.1,0.7,5.7,1.7,7.9c1,2.2,2.4,4,4.1,5.4c1.8,1.4,3.8,2.4,6,3.1c2.2,0.6,4.5,0.8,6.7,0.5c2.3-0.3,4.4-1.1,6.4-2.5
		c2.3-1.5,4.2-3.6,5.8-6.2c1.6-2.5,3-5.7,4-9.4C-865.9,442.9-865.4,439.3-865.5,436.2z"/>
	<path class="st3" d="M-546.9,453.4l-2.4,26.3l16.7-4.1L-546.9,453.4z M-546.9,453.4l-2.4,26.3l16.7-4.1L-546.9,453.4z
		 M-546.9,453.4l-2.4,26.3l16.7-4.1L-546.9,453.4z M-546.9,453.4l-2.4,26.3l16.7-4.1L-546.9,453.4z M-303.9,230l-363,90v409l445-119
		L-303.9,230z M-593.5,518.3l-17.5,4.3l-13.4-54.7l-21.2,5.2l-3.2-13.1l59.8-14.7l3.2,13.1l-21.2,5.2L-593.5,518.3z M-517.3,499.6
		l-8.1-12.5l-25.1,6.2l-1.4,14.9l-17.6,4.3l8.4-73.9l20.1-4.9l41.7,61.6L-517.3,499.6z M-447.7,482.5l-26.9-22.2l-2.8,6l5.4,22.1
		l-17.5,4.3l-16.6-67.8l17.5-4.3l7.5,30.7l16.7-36.6l20.3-5l-18.8,37.9l36.8,29.6L-447.7,482.5z M-417.6,475.1l-16.6-67.8l49-12
		l3.2,13.1l-31.6,7.8l2.9,11.7l29.4-7.2l3.2,13.1l-29.4,7.2l4.1,16.8l31.6-7.8l3.2,13.1L-417.6,475.1z M-334.5,428.4l-8.1,2
		l6.1,24.9l-17.4,4.3l-16.6-67.8l29.3-7.2c4-1,7.5-1.6,10.5-1.8c3-0.3,5.9,0.1,8.8,1c2.9,0.9,5.4,2.4,7.5,4.4c2.1,2,3.6,4.9,4.5,8.5
		c1.2,5,1.1,9.4-0.5,13.1c-1.6,3.7-4.2,7.2-8,10.3l29.7,23.5l-21.4,5.2L-334.5,428.4z M-329.5,399c-1-1-2.4-1.7-4.3-2
		c-1.3-0.2-2.8-0.2-4.4,0.1c-1.6,0.3-3.4,0.7-5.6,1.2l-6.3,1.5l4.5,18.3l5.4-1.3c2.8-0.7,5.1-1.4,6.9-2.1c1.8-0.7,3.2-1.7,4.3-3
		c1-1.2,1.6-2.5,1.9-3.8c0.3-1.3,0.2-2.9-0.3-4.8C-327.8,401.5-328.5,400.1-329.5,399z M-549.3,479.7l16.7-4.1l-14.3-22.2
		L-549.3,479.7z M-546.9,453.4l-2.4,26.3l16.7-4.1L-546.9,453.4z M-546.9,453.4l-2.4,26.3l16.7-4.1L-546.9,453.4z"/>
	<g>
		<g>
		</g>
	</g>
	<polygon class="st3" points="345.1,540 0.1,421 69.1,0 353.1,131 	"/>
	<path class="st3" d="M742.1,42l-363,90v409l445-119L742.1,42z M435.1,195.6c0-3.6,2.9-6.5,6.5-6.5c3.6,0,6.5,2.9,6.5,6.5
		c0,3.6-2.9,6.5-6.5,6.5C438,202.1,435.1,199.2,435.1,195.6z M439.1,269.6c0-3.6,2.9-6.5,6.5-6.5c3.6,0,6.5,2.9,6.5,6.5
		c0,3.6-2.9,6.5-6.5,6.5C442,276.1,439.1,273.2,439.1,269.6z M448.1,344.6c0-3.6,2.9-6.5,6.5-6.5c3.6,0,6.5,2.9,6.5,6.5
		c0,3.6-2.9,6.5-6.5,6.5C451,351.1,448.1,348.2,448.1,344.6z M460.5,433.1c-3.6,0-6.5-2.9-6.5-6.5c0-3.6,2.9-6.5,6.5-6.5
		c3.6,0,6.5,2.9,6.5,6.5C467,430.2,464.1,433.1,460.5,433.1z M470,187.4l230-62.4l1,3.5L471,190.9L470,187.4z M475.8,263.1l-0.1,0
		l-0.3-1.1l0.1,0l-0.4-1.6l230-62.4l1,3.5L476,263.9L475.8,263.1z M483,337.4l230-62.4l1,3.5L484,340.9L483,337.4z M493.7,421
		l-0.9-3.4L739.6,351l0.9,3.5L493.7,421z"/>
	<g>
		<path class="st3" d="M87.6,643.3h-21l-35.8-57.9v57.9H10.9V559h26l30.8,48.3V559h19.9V643.3z"/>
		<path class="st3" d="M191.1,601.2c0,13.4-3.9,24.1-11.6,32c-7.7,7.9-18.4,11.9-31.9,11.9c-13.6,0-24.2-4-31.9-11.9
			c-7.7-7.9-11.6-18.6-11.6-32c0-13.6,3.9-24.3,11.6-32.1s18.3-11.8,31.9-11.8c13.5,0,24.1,3.9,31.9,11.8
			C187.3,576.9,191.1,587.6,191.1,601.2z M162.3,622.5c2.1-2.6,3.7-5.6,4.7-9.1c1-3.5,1.5-7.6,1.5-12.3c0-5.1-0.6-9.4-1.8-12.9
			c-1.2-3.5-2.7-6.4-4.6-8.6c-1.9-2.3-4.1-3.9-6.7-4.9c-2.5-1-5.1-1.5-7.8-1.5c-2.8,0-5.4,0.5-7.8,1.5c-2.4,1-4.7,2.6-6.7,4.9
			c-1.9,2.1-3.4,5-4.6,8.8c-1.2,3.7-1.8,8-1.8,12.9c0,5,0.6,9.3,1.7,12.8c1.2,3.5,2.7,6.4,4.6,8.6c1.9,2.2,4.1,3.9,6.6,4.9
			c2.5,1.1,5.2,1.6,8,1.6c2.8,0,5.5-0.5,8-1.6C158.2,626.5,160.4,624.8,162.3,622.5z"/>
		<path class="st3" d="M273.7,575.3h-26.3v68h-21.8v-68h-26.3V559h74.4V575.3z"/>
		<path class="st3" d="M347.8,643.3h-61V559h61v16.3h-39.4v14.6H345v16.3h-36.5V627h39.4V643.3z"/>
		<path class="st3" d="M471.7,575.3h-26.3v68h-21.8v-68h-26.3V559h74.4V575.3z"/>
		<path class="st3" d="M562.7,643.3h-22.5l-5.9-17h-31.2l-5.9,17h-21.9l31.2-84.3h25L562.7,643.3z M529.1,610.8l-10.4-30.2
			l-10.4,30.2H529.1z"/>
		<path class="st3" d="M653.5,643.3h-26.7l-25.2-33.8l-5,6.2v27.5h-21.8V559h21.8v38.2l30.1-38.2h25.2l-33,39L653.5,643.3z"/>
		<path class="st3" d="M725.3,643.3h-61V559h61v16.3h-39.4v14.6h36.5v16.3h-36.5V627h39.4V643.3z"/>
		<path class="st3" d="M824.7,643.3h-26.6l-22.9-30.9h-10.1v30.9h-21.6V559H780c5,0,9.3,0.3,12.9,0.8c3.6,0.6,6.9,1.8,10.1,3.7
			c3.2,1.9,5.7,4.3,7.6,7.3s2.8,6.8,2.8,11.3c0,6.2-1.4,11.3-4.3,15.2c-2.9,3.9-7,7.2-12.4,9.8L824.7,643.3z M790.8,584.8
			c0-2.1-0.4-3.9-1.3-5.4c-0.9-1.5-2.4-2.7-4.5-3.6c-1.5-0.6-3.2-1-5.2-1.1c-2-0.1-4.2-0.2-6.9-0.2h-7.9v22.7h6.7
			c3.5,0,6.4-0.2,8.7-0.5c2.3-0.3,4.3-1.1,5.9-2.3c1.5-1.2,2.6-2.5,3.3-3.9C790.4,589.1,790.8,587.2,790.8,584.8z"/>
	</g>
</g>
<g id="original">
	<polygon class="st3" points="-795.9,77 -1140.9,-42 -1071.9,-463 -787.9,-332 	"/>
	<polygon class="st3" points="-316.9,-41 -761.9,78 -761.9,-331 -398.9,-421 	"/>
	<g>
		<g>
		</g>
	</g>
	<g>
		<g>
			<path d="M-157.8-132.4h-9.7l-34.6-53.6c-0.9-1.3-1.6-2.7-2.2-4.2h-0.3c0.3,1.4,0.4,4.5,0.4,9.2v48.6h-7.9v-67.2h10.2l33.7,52.7
				c1.4,2.2,2.3,3.7,2.7,4.5h0.2c-0.3-1.9-0.5-5.2-0.5-9.9v-47.3h7.9V-132.4z"/>
			<path d="M-113.1-131.3c-9.5,0-17.2-3.1-22.9-9.4s-8.6-14.5-8.6-24.5c0-10.8,2.9-19.4,8.8-25.9c5.8-6.4,13.8-9.7,23.9-9.7
				c9.3,0,16.8,3.1,22.4,9.4c5.7,6.3,8.5,14.4,8.5,24.5c0,11-2.9,19.6-8.7,26S-103.3-131.3-113.1-131.3z M-112.5-193.7
				c-7.1,0-12.8,2.5-17.2,7.6c-4.4,5.1-6.6,11.8-6.6,20.1c0,8.3,2.1,14.9,6.4,20c4.3,5,9.9,7.6,16.8,7.6c7.4,0,13.2-2.4,17.4-7.2
				c4.3-4.8,6.4-11.5,6.4-20.2c0-8.9-2.1-15.7-6.2-20.6C-99.6-191.2-105.3-193.7-112.5-193.7z"/>
			<path d="M-28.1-192.5h-19.4v60.1h-7.9v-60.1h-19.4v-7.1h46.6V-192.5z"/>
			<path d="M18.1-132.4h-35.6v-67.2h34.1v7.1H-9.6v22.4h24.3v7.1H-9.6v23.5h27.8V-132.4z"/>
		</g>
	</g>
	<g>
		<g>
			<path d="M127.1-189.4h-19.4v60.1h-7.9v-60.1H80.4v-7.1h46.6V-189.4z"/>
			<path d="M189.6-129.3h-8.7l-7.1-18.8h-28.5l-6.7,18.8h-8.8l25.8-67.2h8.2L189.6-129.3z M171.2-155.2l-10.5-28.6
				c-0.3-0.9-0.7-2.4-1-4.5h-0.2c-0.3,1.9-0.7,3.4-1.1,4.5l-10.5,28.6H171.2z"/>
			<path d="M246.3-129.3h-11l-26-30.8c-1-1.2-1.6-1.9-1.8-2.3h-0.2v33.1h-7.9v-67.2h7.9v31.6h0.2c0.4-0.7,1-1.5,1.8-2.3l25.1-29.3
				h9.8l-28.8,32.3L246.3-129.3z"/>
			<path d="M290.8-129.3h-35.6v-67.2h34.1v7.1h-26.3v22.4h24.3v7.1h-24.3v23.5h27.8V-129.3z"/>
			<path d="M352-129.3h-9.4l-11.3-18.8c-1-1.8-2-3.2-3-4.5c-1-1.2-2-2.2-3-3c-1-0.8-2.1-1.4-3.3-1.7c-1.2-0.4-2.5-0.5-4-0.5h-6.5
				v28.6h-7.9v-67.2h20.1c2.9,0,5.6,0.4,8.1,1.1c2.5,0.7,4.6,1.9,6.5,3.4s3.3,3.4,4.3,5.6c1,2.2,1.5,4.9,1.5,7.9
				c0,2.3-0.4,4.5-1.1,6.4c-0.7,2-1.7,3.7-3,5.2c-1.3,1.5-2.9,2.8-4.7,3.9s-3.9,1.9-6.2,2.5v0.2c1.1,0.5,2.1,1.1,2.9,1.7
				c0.8,0.6,1.6,1.4,2.4,2.3c0.8,0.9,1.5,1.9,2.2,3c0.7,1.1,1.6,2.4,2.5,3.9L352-129.3z M311.6-189.4v24.4h10.7c2,0,3.8-0.3,5.5-0.9
				c1.7-0.6,3.1-1.4,4.3-2.6c1.2-1.1,2.2-2.5,2.9-4.1c0.7-1.6,1-3.4,1-5.4c0-3.6-1.2-6.4-3.5-8.4s-5.7-3-10.1-3H311.6z"/>
		</g>
	</g>
</g>
<g id="Layer_4">
</g>
</svg>
